<?xml version="1.0" encoding="UTF-8"?>
<svg version="1.1" xmlns="http://www.w3.org/2000/svg" width="512" height="512">
<path d="M0 0 C168.96 0 337.92 0 512 0 C512 168.96 512 337.92 512 512 C343.04 512 174.08 512 0 512 C0 343.04 0 174.08 0 0 Z " fill="#4E2794" transform="translate(0,0)"/>
<path d="M0 0 C3.49913188 0.87478297 5.78581093 1.8236015 8.90234375 3.51953125 C9.86374268 4.0407959 10.8251416 4.56206055 11.81567383 5.09912109 C12.84587646 5.66453613 13.8760791 6.22995117 14.9375 6.8125 C16.01217529 7.39854004 17.08685059 7.98458008 18.1940918 8.58837891 C25.80033821 12.75211654 33.34524839 17.0155577 40.86010742 21.34155273 C47.95317047 25.42001427 55.09361176 29.4088273 62.25 33.375 C71.05170753 38.25309223 79.84662803 43.14251747 88.625 48.0625 C89.64311768 48.63307129 90.66123535 49.20364258 91.71020508 49.79150391 C94.80696687 51.52737783 97.90348486 53.26368613 101 55 C115.31870653 63.02653033 129.64453796 71.03937471 144 79 C144.24810442 83.87429768 144.42902231 88.74489484 144.54931641 93.62402344 C144.59946677 95.28125016 144.6676137 96.9380373 144.75439453 98.59375 C145.45257954 112.26174838 145.45257954 112.26174838 142.14038086 116.2253418 C139.49702251 117.82463816 136.88579557 118.90206977 134 120 C132.10542118 121.0356325 130.22661822 122.10056305 128.36328125 123.19140625 C126.34714622 124.31652465 124.33018549 125.44016444 122.3125 126.5625 C120.08701079 127.80427755 117.86175531 129.04647407 115.63671875 130.2890625 C114.52345215 130.91071289 113.41018555 131.53236328 112.26318359 132.17285156 C107.37397838 134.91045532 102.49954427 137.6739048 97.625 140.4375 C88.17555923 145.78975744 78.68941234 151.07403717 69.19238281 156.34130859 C58.50193851 162.27147384 47.83487588 168.2428361 37.171875 174.22216797 C33.82373526 176.09879617 30.47450291 177.97346226 27.125 179.84765625 C25.99529785 180.47986084 24.8655957 181.11206543 23.70166016 181.76342773 C21.54519515 182.97016821 19.38862607 184.17672275 17.23193359 185.38305664 C15.76747803 186.20277954 15.76747803 186.20277954 14.2734375 187.0390625 C13.36174805 187.54856445 12.45005859 188.05806641 11.51074219 188.58300781 C9.29749632 189.83210146 7.10485149 191.11060121 4.9140625 192.3984375 C2 194 2 194 0 194 C0 182.45 0 170.9 0 159 C13.78144675 151.33545208 27.56622725 143.67767872 41.375 136.0625 C41.9727121 135.73284241 42.57042419 135.40318481 43.18624878 135.0635376 C48.68937536 132.02856988 54.19315533 128.99478961 59.69824219 125.96337891 C60.93164286 125.28418375 62.1650413 124.60498453 63.3984375 123.92578125 C64.0082547 123.58998047 64.6180719 123.25417969 65.24636841 122.90820312 C70.05864748 120.25754903 74.86700503 117.59984485 79.67404175 114.93969727 C83.28464942 112.943149 86.9017627 110.95897142 90.52362061 108.98291016 C92.3069853 108.00837171 94.08801532 107.02971525 95.86816406 106.04931641 C98.07445671 104.83467681 100.28459025 103.62698034 102.49902344 102.42724609 C103.47387695 101.88793457 104.44873047 101.34862305 105.453125 100.79296875 C106.31067383 100.3239917 107.16822266 99.85501465 108.05175781 99.37182617 C110.30535168 98.0733117 110.30535168 98.0733117 111 95 C110.23558594 94.78988281 109.47117187 94.57976562 108.68359375 94.36328125 C103.53372239 92.45733734 98.86766377 89.83026309 94.0625 87.1875 C93.0012793 86.6085498 91.94005859 86.02959961 90.84667969 85.43310547 C82.82747694 81.04333449 74.87306383 76.54378479 66.92993164 72.01831055 C59.35281437 67.71996957 51.69036036 63.59087922 44 59.5 C31.54562045 52.87468455 19.24187539 46.00905947 7 39 C3.535 37.02 3.535 37.02 0 35 C0 23.45 0 11.9 0 0 Z " fill="#FDFCFD" transform="translate(284,159)"/>
<path d="M0 0 C0 11.88 0 23.76 0 36 C-6.2184375 39.3103125 -6.2184375 39.3103125 -12.5625 42.6875 C-22.63655157 48.06873967 -32.63095931 53.565392 -42.55297852 59.22338867 C-49.32051402 63.07431949 -56.14316378 66.81066685 -63 70.5 C-72.09048762 75.39202496 -81.10609644 80.40226235 -90.07617188 85.51171875 C-94.71980333 88.15548838 -99.37154871 90.78451701 -104.04296875 93.37890625 C-104.94426514 93.88107666 -105.84556152 94.38324707 -106.77416992 94.90063477 C-109 96 -109 96 -111 96 C-109.68027361 99.95917918 -108.21010443 100.27204287 -104.578125 102.23046875 C-103.42248047 102.86017578 -102.26683594 103.48988281 -101.07617188 104.13867188 C-99.80082111 104.82168902 -98.52542933 105.50462958 -97.25 106.1875 C-95.93240206 106.90199869 -94.61535256 107.61750959 -93.29882812 108.33398438 C-90.56005901 109.82344464 -87.81896731 111.30849539 -85.07617188 112.79052734 C-79.45895308 115.8298926 -73.87086246 118.92164482 -68.28265381 122.01391602 C-65.28086818 123.67436894 -62.27711446 125.33125288 -59.2734375 126.98828125 C-58.67641022 127.31772736 -58.07938293 127.64717346 -57.46426392 127.98660278 C-53.78046654 130.01903202 -50.09521335 132.0487973 -46.40895081 134.07675171 C-30.88198822 142.61889348 -15.41141228 151.25029496 0 160 C0 171.55 0 183.1 0 195 C-4.28079011 193.57306996 -7.37462777 192.39461681 -11.17578125 190.234375 C-12.15546875 189.68136719 -13.13515625 189.12835938 -14.14453125 188.55859375 C-15.18996094 187.96175781 -16.23539062 187.36492187 -17.3125 186.75 C-19.56893267 185.47382086 -21.8254453 184.19778309 -24.08203125 182.921875 C-25.24436308 182.26247501 -26.40663523 181.60296981 -27.56884766 180.94335938 C-32.86793586 177.9420258 -38.18424123 174.97167289 -43.5 172 C-45.58342784 170.8335021 -47.66676089 169.66683492 -49.75 168.5 C-50.78125 167.9225 -51.8125 167.345 -52.875 166.75 C-64.33333333 160.33333333 -75.79166667 153.91666667 -87.25 147.5 C-88.2822168 146.9220166 -89.31443359 146.3440332 -90.37792969 145.74853516 C-92.45169746 144.58710845 -94.5252667 143.42532719 -96.59863281 142.26318359 C-101.95170826 139.26333965 -107.30857054 136.27058499 -112.671875 133.2890625 C-113.77337891 132.67546875 -114.87488281 132.061875 -116.00976562 131.4296875 C-118.08528666 130.2737011 -120.16200188 129.11985461 -122.24023438 127.96875 C-124.16902317 126.89330413 -126.08575596 125.79593662 -127.98950195 124.67675781 C-131.04364476 122.91083793 -131.04364476 122.91083793 -134.59448242 121.44042969 C-143.17851291 117.30402591 -143.17851291 117.30402591 -144.65692139 113.15753174 C-145.61624772 107.78160057 -145.18538972 102.4152896 -144.8125 97 C-144.74721291 95.35048849 -144.68791061 93.7007286 -144.63476562 92.05078125 C-144.4922075 88.02767472 -144.26851385 84.01658589 -144 80 C-143.38294189 79.6690332 -142.76588379 79.33806641 -142.13012695 78.99707031 C-130.38554951 72.68901337 -118.69426452 66.31094839 -107.14086914 59.65869141 C-100.04715487 55.58071685 -92.90667368 51.5913309 -85.75 47.625 C-73.85144516 41.03056957 -61.97575407 34.3965411 -50.11035156 27.74267578 C-46.94734561 25.97049866 -43.78252314 24.20160601 -40.6171875 22.43359375 C-29.4685951 16.20369833 -18.33959271 9.94506283 -7.28222656 3.55419922 C-6.05971191 2.85061279 -6.05971191 2.85061279 -4.8125 2.1328125 C-3.73935547 1.51237061 -3.73935547 1.51237061 -2.64453125 0.87939453 C-1 0 -1 0 0 0 Z " fill="#FCFCFD" transform="translate(228,158)"/>
</svg>
